<svg xmlns="http://www.w3.org/2000/svg" width="467" height="195" viewBox="0 0 467 195" role="img" aria-labelledby="title">
  <title id="title">avneetxsingh's GitHub Stats: 126 stars, 632 commits, 7 PRs</title>
  <style>
    text { font-family: 'Segoe UI', Ubuntu, 'Helvetica Neue', Sans-Serif; }
    .title { font-size: 18px; font-weight: 600; fill: #C4442A; }
    .label, .value { font-size: 14px; font-weight: 600; fill: #161616; }
    .note { font-size: 11px; fill: #161616; fill-opacity: 0.55; }
    .big { font-size: 26px; font-weight: 700; fill: #161616; }
    .small { font-size: 10px; font-weight: 600; fill: #C4442A; letter-spacing: 1.5px; }
  </style>
  <rect x="0.5" y="0.5" rx="4.5" width="466" height="194" fill="#FAFAF7" stroke="#DDD9D0"/>
  <text x="25" y="35" class="title">avneetxsingh's GitHub Stats</text>
  
  <g transform="translate(25, 60)">
    <svg x="0" y="-12.5" width="16" height="16" viewBox="0 0 16 16" fill="#C4442A"><path d="M8 .25a.75.75 0 0 1 .673.418l1.882 3.815 4.21.612a.75.75 0 0 1 .416 1.279l-3.046 2.97.719 4.192a.751.751 0 0 1-1.088.791L8 12.347l-3.766 1.98a.75.75 0 0 1-1.088-.79l.72-4.194L.818 6.374a.75.75 0 0 1 .416-1.28l4.21-.611L7.327.668A.75.75 0 0 1 8 .25Zm0 2.445L6.615 5.5a.75.75 0 0 1-.564.41l-3.097.45 2.24 2.184a.75.75 0 0 1 .216.664l-.528 3.084 2.769-1.456a.75.75 0 0 1 .698 0l2.77 1.456-.53-3.084a.75.75 0 0 1 .216-.664l2.24-2.183-3.096-.45a.75.75 0 0 1-.564-.41L8 2.694Z"/></svg>
    <text x="25" y="0" class="label">Total Stars Earned:</text>
    <text x="225" y="0" class="value">126</text>
  </g>
  <g transform="translate(25, 84)">
    <svg x="0" y="-12.5" width="16" height="16" viewBox="0 0 16 16" fill="#C4442A"><path d="M11.93 8.5a4.002 4.002 0 0 1-7.86 0H.75a.75.75 0 0 1 0-1.5h3.32a4.002 4.002 0 0 1 7.86 0h3.32a.75.75 0 0 1 0 1.5Zm-1.43-.75a2.5 2.5 0 1 0-5 0 2.5 2.5 0 0 0 5 0Z"/></svg>
    <text x="25" y="0" class="label">Total Commits (last year):</text>
    <text x="225" y="0" class="value">632</text>
  </g>
  <g transform="translate(25, 108)">
    <svg x="0" y="-12.5" width="16" height="16" viewBox="0 0 16 16" fill="#C4442A"><path d="M1.5 3.25a2.25 2.25 0 1 1 3 2.122v5.256a2.251 2.251 0 1 1-1.5 0V5.372A2.25 2.25 0 0 1 1.5 3.25Zm5.677-.177L9.573.677A.25.25 0 0 1 10 .854V2.5h1A2.5 2.5 0 0 1 13.5 5v5.628a2.251 2.251 0 1 1-1.5 0V5a1 1 0 0 0-1-1h-1v1.646a.25.25 0 0 1-.427.177L7.177 3.427a.25.25 0 0 1 0-.354ZM3.75 2.5a.75.75 0 1 0 0 1.5.75.75 0 0 0 0-1.5Zm0 9.5a.75.75 0 1 0 0 1.5.75.75 0 0 0 0-1.5Zm8.25.75a.75.75 0 1 0 1.5 0 .75.75 0 0 0-1.5 0Z"/></svg>
    <text x="25" y="0" class="label">Total PRs:</text>
    <text x="225" y="0" class="value">7</text>
  </g>
  <g transform="translate(25, 132)">
    <svg x="0" y="-12.5" width="16" height="16" viewBox="0 0 16 16" fill="#C4442A"><path d="M8 9.5a1.5 1.5 0 1 0 0-3 1.5 1.5 0 0 0 0 3Z"/><path d="M8 0a8 8 0 1 1 0 16A8 8 0 0 1 8 0ZM1.5 8a6.5 6.5 0 1 0 13 0 6.5 6.5 0 0 0-13 0Z"/></svg>
    <text x="25" y="0" class="label">Total Issues:</text>
    <text x="225" y="0" class="value">1</text>
  </g>
  <g transform="translate(25, 156)">
    <svg x="0" y="-12.5" width="16" height="16" viewBox="0 0 16 16" fill="#C4442A"><path d="M2 2.5A2.5 2.5 0 0 1 4.5 0h8.75a.75.75 0 0 1 .75.75v12.5a.75.75 0 0 1-.75.75h-2.5a.75.75 0 0 1 0-1.5h1.75v-2h-8a1 1 0 0 0-.714 1.7.75.75 0 1 1-1.072 1.05A2.495 2.495 0 0 1 2 11.5Zm10.5-1h-8a1 1 0 0 0-1 1v6.708A2.486 2.486 0 0 1 4.5 9h8ZM5 12.25a.25.25 0 0 1 .25-.25h3.5a.25.25 0 0 1 .25.25v3.25a.25.25 0 0 1-.4.2l-1.45-1.087a.249.249 0 0 0-.3 0L5.4 15.7a.25.25 0 0 1-.4-.2Z"/></svg>
    <text x="25" y="0" class="label">Contributed to (last year):</text>
    <text x="225" y="0" class="value">1</text>
  </g>
  <g transform="translate(385, 100)">
    <circle r="42" fill="none" stroke="#C4442A" stroke-opacity="0.18" stroke-width="6"/>
    <circle r="42" fill="none" stroke="#C4442A" stroke-width="6" stroke-linecap="round"
      stroke-dasharray="263.9" stroke-dashoffset="66" transform="rotate(-90)"/>
    <text y="7" text-anchor="middle" class="big">126</text>
    <text y="23" text-anchor="middle" class="small">STARS</text>
  </g>
  <text x="25" y="182" class="note">Stars include S4US/Roqer</text>
</svg>
